<svg version="1.1" xmlns="http://www.w3.org/2000/svg" xmlns:xlink="http://www.w3.org/1999/xlink" width="448px" height="512px" viewBox="0,0,224,256"><g fill="#ffffff" fill-rule="nonzero" stroke="none" stroke-width="1" stroke-linecap="butt" stroke-linejoin="miter" stroke-miterlimit="10" stroke-dasharray="" stroke-dashoffset="0" font-family="none" font-weight="none" font-size="none" text-anchor="none" style="mix-blend-mode: normal"><g transform="scale(0.5,0.5)"><path d="M135.2,17.7l-7.2,14.3h-96c-17.7,0 -32,14.3 -32,32c0,17.7 14.3,32 32,32h384c17.7,0 32,-14.3 32,-32c0,-17.7 -14.3,-32 -32,-32h-96l-7.2,-14.3c-5.4,-10.9 -16.5,-17.7 -28.6,-17.7h-120.4c-12.1,0 -23.2,6.8 -28.6,17.7zM416,128h-384l21.2,339c1.6,25.3 22.6,45 47.9,45h245.8c25.3,0 46.3,-19.7 47.9,-45z"></path></g></g></svg>